# xmcd
#
# Track frame offsets: 
#        150
#        23212
#        44407
#        64915
#        88925
#        108165
#        133650
#        147470
#        170640
#        190582
#
# Disc length: 2763 seconds
#
# Revision: 8
# Processed by: cddbd v1.5.2PL0 Copyright (c) Steve Scherf et al.
# Submitted via: ExactAudioCopyFreeDBPlugin 1.0
#
DISCID=8f0ac90a
DTITLE=Perrí - Tradewinds
DYEAR=1990
DGENRE=Funk
TTITLE0=Someone Like You
TTITLE1=It's Been You
TTITLE2=You Taught Me How
TTITLE3=Tradewinds
TTITLE4=Talk To Me
TTITLE5=You're The One
TTITLE6=Crazy
TTITLE7=Mary, Mary
TTITLE8=No Way To Treat A Lady
TTITLE9=Say You Will
EXTD=
EXTT0=
EXTT1=
EXTT2=
EXTT3=
EXTT4=
EXTT5=
EXTT6=
EXTT7=
EXTT8=
EXTT9=
PLAYORDER=
